<svg width="21" height="21" viewBox="0 0 21 21" fill="none" xmlns="http://www.w3.org/2000/svg">
<path d="M4 5.5H17.79C18.0694 5.50001 18.3457 5.55857 18.6011 5.67191C18.8565 5.78524 19.0854 5.95083 19.2729 6.15801C19.4603 6.36519 19.6023 6.60936 19.6897 6.87478C19.777 7.14019 19.8078 7.42097 19.78 7.699L19.18 13.699C19.1307 14.1925 18.8997 14.6501 18.532 14.9829C18.1642 15.3157 17.686 15.5 17.19 15.5H7.64C7.17747 15.5002 6.72918 15.34 6.37144 15.0469C6.01371 14.7537 5.76866 14.3456 5.678 13.892L4 5.5Z" stroke="white" stroke-width="2" stroke-linejoin="round"/>
<path d="M4 5.5L3.19 2.257C3.13583 2.04075 3.01095 1.84881 2.83521 1.71166C2.65946 1.5745 2.44293 1.50001 2.22 1.5H1M7 19.5H9M15 19.5H17" stroke="white" stroke-width="2" stroke-linecap="round" stroke-linejoin="round"/>
</svg>
