<svg width="26" height="23" viewBox="0 0 26 23" fill="none" xmlns="http://www.w3.org/2000/svg">
<path d="M16 16.5V19C16 19.663 15.7366 20.2989 15.2678 20.7678C14.7989 21.2366 14.163 21.5 13.5 21.5H3.5C2.83696 21.5 2.20107 21.2366 1.73223 20.7678C1.26339 20.2989 1 19.663 1 19V4C1 3.33696 1.26339 2.70107 1.73223 2.23223C2.20107 1.76339 2.83696 1.5 3.5 1.5H13C14.3806 1.5 16 2.61937 16 4V6.5M20 16.5L25 11.5L20 6.5M8 11.5H24" stroke="white" stroke-width="2" stroke-linecap="round" stroke-linejoin="round"/>
</svg>
